<svg xmlns="http://www.w3.org/2000/svg" xmlns:xlink="http://www.w3.org/1999/xlink" viewBox="0 0 205.86 59.75">
  <defs>
    <style>
      .cls-1 {
        fill: none;
      }

      .cls-2 {
        fill: #313133;
      }

      .cls-2, .cls-3, .cls-4, .cls-5, .cls-6, .cls-7 {
        fill-rule: evenodd;
      }

      .cls-3 {
        fill: url(#Degradado_sin_nombre_5);
      }

      .cls-4 {
        fill: url(#Degradado_sin_nombre_2);
      }

      .cls-5 {
        fill: url(#Degradado_sin_nombre_3);
      }

      .cls-6 {
        fill: url(#Degradado_sin_nombre_4);
      }

      .cls-7 {
        fill: #fff;
      }

      .cls-8 {
        isolation: isolate;
      }
    </style>
    <linearGradient id="Degradado_sin_nombre_5" data-name="Degradado sin nombre 5" x1="-2640.15" y1="871.9" x2="-2639.36" y2="871.9" gradientTransform="matrix(64.55, 0, 0, -31.06, 170426.9, 27097.09)" gradientUnits="userSpaceOnUse">
      <stop offset="0" stop-color="#e60026"/>
      <stop offset="1" stop-color="#fe0"/>
    </linearGradient>
    <linearGradient id="Degradado_sin_nombre_2" data-name="Degradado sin nombre 2" x1="-2632.88" y1="870.75" x2="-2632.09" y2="870.75" gradientTransform="matrix(54.9, 0, 0, -26.23, 144553.54, 22858.43)" gradientUnits="userSpaceOnUse">
      <stop offset="0" stop-color="#c8061f"/>
      <stop offset="1" stop-color="#eda014"/>
    </linearGradient>
    <linearGradient id="Degradado_sin_nombre_3" data-name="Degradado sin nombre 3" x1="-2640.19" y1="872.02" x2="-2639.5" y2="872.04" gradientTransform="matrix(64.69, 0, 0, -30.34, 170802.34, 26502.2)" gradientUnits="userSpaceOnUse">
      <stop offset="0" stop-color="#0051a1"/>
      <stop offset="1" stop-color="#6db231"/>
    </linearGradient>
    <linearGradient id="Degradado_sin_nombre_4" data-name="Degradado sin nombre 4" x1="-2632.76" y1="870.82" x2="-2632.04" y2="870.82" gradientTransform="matrix(54.79, 0, 0, -25.51, 144269.45, 22259.7)" gradientUnits="userSpaceOnUse">
      <stop offset="0" stop-color="#002581"/>
      <stop offset="1" stop-color="#00973d"/>
    </linearGradient>
  </defs>
  <g id="Capa_2" data-name="Capa 2">
    <g id="Grid">
      <g>
        <g>
          <rect id="Rectángulo_56" data-name="Rectángulo 56" class="cls-1" width="59.75" height="59.75"/>
          <path id="Trazado_1" data-name="Trazado 1" class="cls-2" d="M29.67,54.29c12.58,0,22.83-11.06,22.83-24.66S42.25,5,29.67,5,6.87,16,6.87,29.63,17.13,54.29,29.67,54.29Z"/>
          <path id="Trazado_2" data-name="Trazado 2" class="cls-3" d="M4.45,27.1C5.76,13.45,16.67,2.74,29.89,2.74c12.73,0,24.15,10.68,25.3,24.42Z"/>
          <path id="Trazado_3" data-name="Trazado 3" class="cls-4" d="M8.32,27.13c1.1-11.55,10.4-20.6,21.62-20.6,10.85,0,20.55,9,21.54,20.62Z"/>
          <path id="Trazado_4" data-name="Trazado 4" class="cls-5" d="M55.3,33.16C54,46.51,43.08,57,29.89,57S5.76,46.51,4.45,33.16Z"/>
          <path id="Trazado_5" data-name="Trazado 5" class="cls-6" d="M51.53,33.24C50.43,44.47,41.2,53.3,30,53.3S9.56,44.47,8.46,33.24Z"/>
          <ellipse cx="29.85" cy="29.87" rx="20.72" ry="22.4"/>
          <g id="Grupo_5" data-name="Grupo 5">
            <g id="Grupo_1" data-name="Grupo 1">
              <path id="Trazado_7" data-name="Trazado 7" class="cls-7" d="M25.23,19a5.08,5.08,0,0,0-1.64-2.34A4.36,4.36,0,0,0,21,15.82,3.54,3.54,0,0,0,18.09,17,15.54,15.54,0,0,0,16,21.18L9.18,39.67a3.84,3.84,0,0,0-.26,1.38,3.29,3.29,0,0,0,.83,2,2.35,2.35,0,0,0,1.78.94c1.21,0,2-.67,2.58-2.12l1.19-3.15a1.11,1.11,0,0,1,.59-.76,4.61,4.61,0,0,1,1.48-.16h2a3,3,0,0,0,2.13-.86A2.5,2.5,0,0,0,22.32,35a2.07,2.07,0,0,0,0-.35,3.47,3.47,0,0,0-.81-1.88,2.12,2.12,0,0,0-1.66-.76h-.89c-.54,0-.84-.19-.89-.54a3.59,3.59,0,0,0,.08-.35.5.5,0,0,1,.05-.21l2-5.5c.41-1.07.76-1.61,1-1.61s.45.43.75,1.32l5.3,16.12a4.08,4.08,0,0,0,1.27,2,2.79,2.79,0,0,0,1.75.51h.27a3.28,3.28,0,0,0,2.21-.91,3.2,3.2,0,0,0,.87-2.31v-.24a12.41,12.41,0,0,0-1-3.53l-4-10,.83.16,3.82,8.78c.22.54.49,1.4.87,2.58a7.8,7.8,0,0,1,.43,2.29,3.82,3.82,0,0,1-1.24,3,3.87,3.87,0,0,1-2.83,1.11h-.19a3.79,3.79,0,0,1-3.79-2.89L21.11,25.46l-2,5.71h.48c2.26,0,3.5,1.24,3.64,3.74v.27a3.36,3.36,0,0,1-.87,2.29,3.18,3.18,0,0,1-2.42,1.16H17.1a1,1,0,0,0-.83.24A3.56,3.56,0,0,0,15.73,40l-.92,2.54a2.89,2.89,0,0,1-1.32,1.67,3.48,3.48,0,0,1-1.69.51h-.19a3.32,3.32,0,0,1-2.56-1.19,3.34,3.34,0,0,1-1-2.31V41a8.65,8.65,0,0,1,.67-2.45c.11-.32.24-.65.38-1l6.78-18.47a7.51,7.51,0,0,1,2.18-3.17A4.3,4.3,0,0,1,21,14.83h.32a4.53,4.53,0,0,1,3.26,1.34,11.89,11.89,0,0,1,1.8,3.39C33.68,37.14,30.26,31.38,25.23,19Z"/>
            </g>
            <g id="Grupo_2" data-name="Grupo 2">
              <path id="Trazado_8" data-name="Trazado 8" class="cls-7" d="M37.59,20.1l2.72,10.4,4.2-12.82a6.07,6.07,0,0,1,1.34-2.45,3,3,0,0,1,2.24-.76h.19a3.16,3.16,0,0,1,2.42,1,3.61,3.61,0,0,1,.94,2.59v.16a11.37,11.37,0,0,1-.86,3.58L43.64,41.72a3.7,3.7,0,0,1-1.26,1.78,3.06,3.06,0,0,1-1.81.7c-1.75,0-3-1.05-3.76-3.21L30.18,22.42c-.1-.3-.27-.73-.45-1.32a5,5,0,0,1-.41-1.24,3.53,3.53,0,0,1-.15-1.21,4.72,4.72,0,0,1,1.07-3A3.4,3.4,0,0,1,33,14.47h.19a3.47,3.47,0,0,1,3.74,2.72l3,12.79-3.6-12a3.14,3.14,0,0,0-3.15-2.53,2.84,2.84,0,0,0-2.1.81,3.91,3.91,0,0,0-.94,2.18,5.38,5.38,0,0,0,.32,1.83l7.3,20.17c.64,1.78,1.53,2.66,2.69,2.66a2.29,2.29,0,0,0,2.32-1.72l7.08-19.81c.37-1,.61-1.75.78-2.21a3.69,3.69,0,0,0,.13-1.05v-.24a2.85,2.85,0,0,0-.7-1.83,2.25,2.25,0,0,0-1.75-.7H48c-1.13,0-2,.7-2.42,2.15L41.06,31.27c-.19.54-.4.81-.7.81s-.59-.19-.73-.67L36.32,18.08Z"/>
            </g>
            <g id="Grupo_3" data-name="Grupo 3">
              <path id="Trazado_9" data-name="Trazado 9" class="cls-7" d="M28.19,26l.67-.19,2,4.74-.64.46Z"/>
            </g>
            <g id="Grupo_4" data-name="Grupo 4">
              <path id="Trazado_10" data-name="Trazado 10" class="cls-7" d="M36.24,18l1.16,1.51L40.12,30l-.62.35Z"/>
            </g>
          </g>
        </g>
        <g>
          <g id="AudiovisuAl" class="cls-8">
            <g class="cls-8">
              <path d="M77.71,25.36a1.45,1.45,0,0,1-.59,1.21,1.63,1.63,0,0,1-1,.39V23.75H65.7V27a1.48,1.48,0,0,1-1.23-.58,1.58,1.58,0,0,1-.37-1V20.56a1.43,1.43,0,0,1,.59-1.21,1.63,1.63,0,0,1,1-.39H76.11a1.49,1.49,0,0,1,1.22.59,1.67,1.67,0,0,1,.38,1Zm-1.6-3.21V20.56H65.7v1.59Z"/>
              <path d="M92.93,25.36a1.47,1.47,0,0,1-.59,1.21,1.63,1.63,0,0,1-1,.39H80.92a1.47,1.47,0,0,1-1.22-.58,1.59,1.59,0,0,1-.39-1v-4.8a1.49,1.49,0,0,1,.58-1.23,1.59,1.59,0,0,1,1-.37v6.39H91.33V19a1.43,1.43,0,0,1,1.21.58,1.59,1.59,0,0,1,.39,1Z"/>
              <path d="M108.11,20.54v4.82a1.48,1.48,0,0,1-.57,1.21,1.56,1.56,0,0,1-1,.39h-12V19h12a1.44,1.44,0,0,1,1.21.58A1.64,1.64,0,0,1,108.11,20.54Zm-1.57,4.81V20.56H96.13v4.79Z"/>
              <path d="M111.35,27h-1.6V19h1.6Z"/>
              <path d="M126.57,25.36a1.46,1.46,0,0,1-.6,1.21,1.6,1.6,0,0,1-1,.39H114.55a1.47,1.47,0,0,1-1.21-.58,1.59,1.59,0,0,1-.39-1v-4.8a1.46,1.46,0,0,1,.58-1.23,1.58,1.58,0,0,1,1-.37H125a1.44,1.44,0,0,1,1.21.58,1.59,1.59,0,0,1,.39,1Zm-1.6,0V20.56H114.55v4.79Z"/>
              <path d="M141.79,19l-2.25,6.39a2.94,2.94,0,0,1-.71,1.2,1.32,1.32,0,0,1-.89.41h-8.17a1.48,1.48,0,0,1-1.22-.58,1.64,1.64,0,0,1-.38-1v-4.8a1.46,1.46,0,0,1,.58-1.23,1.58,1.58,0,0,1,1-.37v6.39H138L140.19,19Z"/>
              <path d="M145,27h-1.6V19H145Z"/>
              <path d="M160.21,25.35a1.46,1.46,0,0,1-.6,1.22,1.61,1.61,0,0,1-1,.39H148.19a1.45,1.45,0,0,1-1.23-.6,1.6,1.6,0,0,1-.37-1h12v-1.6H148.19a1.49,1.49,0,0,1-1.22-.59,1.65,1.65,0,0,1-.38-1V20.56a1.46,1.46,0,0,1,.58-1.23,1.58,1.58,0,0,1,1-.37H158.6a1.45,1.45,0,0,1,1.22.58,1.59,1.59,0,0,1,.39,1h-12v1.59H158.6a1.45,1.45,0,0,1,1.22.58,1.59,1.59,0,0,1,.39,1Z"/>
              <path d="M175.42,25.36a1.47,1.47,0,0,1-.59,1.21,1.63,1.63,0,0,1-1,.39H163.41a1.48,1.48,0,0,1-1.22-.58,1.58,1.58,0,0,1-.38-1v-4.8a1.48,1.48,0,0,1,.57-1.23,1.59,1.59,0,0,1,1-.37v6.39h10.41V19a1.46,1.46,0,0,1,1.22.58,1.64,1.64,0,0,1,.38,1Z"/>
              <path d="M190.64,25.36a1.47,1.47,0,0,1-.59,1.21,1.65,1.65,0,0,1-1,.39V23.75H178.63V27a1.5,1.5,0,0,1-1.24-.58,1.63,1.63,0,0,1-.37-1V20.56a1.44,1.44,0,0,1,.6-1.21,1.61,1.61,0,0,1,1-.39H189a1.47,1.47,0,0,1,1.21.59,1.63,1.63,0,0,1,.39,1ZM189,22.15V20.56H178.63v1.59Z"/>
              <path d="M205.86,25.35a1.46,1.46,0,0,1-.6,1.22,1.61,1.61,0,0,1-1,.39H193.84a1.45,1.45,0,0,1-1.21-.58,1.59,1.59,0,0,1-.39-1V19h1.6v6.39Z"/>
            </g>
          </g>
          <g id="systeMs" class="cls-8">
            <g class="cls-8">
              <path d="M77.71,41.58a1.47,1.47,0,0,1-.59,1.22,1.67,1.67,0,0,1-1,.38H65.7a1.43,1.43,0,0,1-1.23-.59,1.62,1.62,0,0,1-.37-1h12V40H65.7a1.49,1.49,0,0,1-1.22-.59,1.67,1.67,0,0,1-.38-1V36.79a1.46,1.46,0,0,1,.57-1.23,1.61,1.61,0,0,1,1-.37H76.11a1.46,1.46,0,0,1,1.22.58,1.64,1.64,0,0,1,.38,1h-12v1.59H76.11a1.48,1.48,0,0,1,1.22.57,1.66,1.66,0,0,1,.38,1Z"/>
              <path d="M92.93,38.38a1.49,1.49,0,0,1-.59,1.22,1.67,1.67,0,0,1-1,.38H86.92v3.2h-1.6V40h-4.4a1.45,1.45,0,0,1-1.22-.58,1.59,1.59,0,0,1-.39-1V36.79a1.44,1.44,0,0,1,.81-1.38,3.1,3.1,0,0,1,.8-.22v3.19H91.33V35.19a1.44,1.44,0,0,1,1.21.57,1.6,1.6,0,0,1,.39,1Z"/>
              <path d="M108.15,41.58a1.47,1.47,0,0,1-.6,1.22,1.65,1.65,0,0,1-1,.38H96.13a1.45,1.45,0,0,1-1.23-.59,1.62,1.62,0,0,1-.37-1h12V40H96.13a1.47,1.47,0,0,1-1.21-.59,1.63,1.63,0,0,1-.39-1V36.79a1.44,1.44,0,0,1,.58-1.23,1.58,1.58,0,0,1,1-.37h10.41a1.45,1.45,0,0,1,1.22.58,1.59,1.59,0,0,1,.39,1h-12v1.59h10.41a1.46,1.46,0,0,1,1.22.57,1.62,1.62,0,0,1,.39,1Z"/>
              <path d="M123.36,36.79h-6v6.39h-1.6V36.79h-6a1.49,1.49,0,0,1,.59-1.22,1.67,1.67,0,0,1,1-.38h10.41a1.45,1.45,0,0,1,1.22.58A1.58,1.58,0,0,1,123.36,36.79Z"/>
              <path d="M138.58,41.58A1.48,1.48,0,0,1,138,42.8a1.6,1.6,0,0,1-1,.38H125v-8h12a1.49,1.49,0,0,1,1.22.59,1.67,1.67,0,0,1,.38,1h-12v1.59h12V40h-12v1.6Z"/>
              <path d="M153.8,41.58a1.45,1.45,0,0,1-.58,1.22,1.64,1.64,0,0,1-1,.38V36.79h-4.41v6.39h-1.6V36.79h-4.41v6.39a1.46,1.46,0,0,1-1.21-.57,1.6,1.6,0,0,1-.39-1V36.79a1.47,1.47,0,0,1,.6-1.22,1.65,1.65,0,0,1,1-.38H152.2a1.44,1.44,0,0,1,1.21.58,1.57,1.57,0,0,1,.39,1Z"/>
              <path d="M169,41.58a1.47,1.47,0,0,1-.59,1.22,1.67,1.67,0,0,1-1,.38H157a1.45,1.45,0,0,1-1.23-.59,1.62,1.62,0,0,1-.37-1h12V40H157a1.49,1.49,0,0,1-1.22-.59,1.67,1.67,0,0,1-.38-1V36.79a1.44,1.44,0,0,1,.58-1.23,1.58,1.58,0,0,1,1-.37h10.41a1.45,1.45,0,0,1,1.22.58,1.58,1.58,0,0,1,.38,1H157v1.59h10.41a1.46,1.46,0,0,1,1.22.57,1.61,1.61,0,0,1,.38,1Z"/>
            </g>
          </g>
        </g>
      </g>
    </g>
  </g>
</svg>
