<svg xmlns="http://www.w3.org/2000/svg" viewBox="0 0 56 52">
  <defs>
    <style>
      .cls-1 {
        fill: red;
      }

      .cls-2 {
        fill: #fff;
      }
    </style>
  </defs>
  <g id="Capa_2" data-name="Capa 2">
    <g id="Capa_1-2" data-name="Capa 1">
      <g>
        <rect id="Rectángulo_27-4" data-name="Rectángulo 27-4" class="cls-1" width="56" height="52" rx="8"/>
        <path id="Trazado_5" data-name="Trazado 5" class="cls-2" d="M41,29.3c-.87-.94-2.55-1.38-5-1.38a24.38,24.38,0,0,0-4,.36,19.74,19.74,0,0,1-2.32-2.68,22.33,22.33,0,0,1-1.46-2.26,23.81,23.81,0,0,0,1.31-6.41c0-2-.8-4.08-3-4.08A2.17,2.17,0,0,0,24.75,14c-.95,1.6-.58,4.88.94,8.3-.51,1.48-1.09,3-1.69,4.7A27.58,27.58,0,0,1,22,31.15c-2.25.87-7,3.06-7.42,5.46a1.85,1.85,0,0,0,.65,1.89,2.7,2.7,0,0,0,2,.66c2.84,0,5.68-3.93,7.64-7.35,1.1-.37,2.19-.73,3.35-1s2.4-.59,3.5-.8a11.19,11.19,0,0,0,7,3c1.83,0,2.55-.8,2.77-1.45A2.14,2.14,0,0,0,41,29.3Zm-2,1.39c-.07.51-.66.87-1.38.87a2.09,2.09,0,0,1-.66-.07,10.4,10.4,0,0,1-4-2,20.24,20.24,0,0,1,2.91-.21,19,19,0,0,1,2,.14C38.51,29.52,39.23,29.81,39,30.69ZM26,14.6a1,1,0,0,1,.66-.44c.73,0,.87.8.87,1.53a18.4,18.4,0,0,1-.87,4.88C25.4,17.43,25.55,15.32,26,14.6Zm4.08,14c-.8.14-1.6.36-2.4.58-.58.14-1.17.36-1.82.51.29-.66.58-1.31.87-1.89.37-.8.66-1.6.95-2.4.29.43.51.8.8,1.16.51.72,1.09,1.38,1.6,2Zm-8.83,4.2c-1.82,2.91-3.64,4.8-4.66,4.8a.77.77,0,0,1-.44-.14.6.6,0,0,1-.21-.66C16.08,35.71,18.19,34.18,21.25,32.8Z"/>
      </g>
    </g>
  </g>
</svg>
