<svg xmlns="http://www.w3.org/2000/svg" viewBox="0 0 17.19 17.27">
  <defs>
    <style>
      .cls-1 {
        fill: #fff;
      }
    </style>
  </defs>
  <g id="Capa_2" data-name="Capa 2">
    <g id="Capa_1-2" data-name="Capa 1">
      <g id="Grupo_8" data-name="Grupo 8">
        <path id="whatsapp" class="cls-1" d="M14.68,2.51A8.56,8.56,0,0,0,.07,8.57a8.5,8.5,0,0,0,1.14,4.26L0,17.27l4.54-1.19a8.57,8.57,0,0,0,4.09,1h0a8.56,8.56,0,0,0,6-14.61Zm-6,13.16a7.06,7.06,0,0,1-3.62-1l-.26-.16-2.7.71.72-2.63-.16-.27a7.1,7.1,0,1,1,6,3.34Zm3.9-5.32c-.21-.11-1.27-.63-1.46-.7s-.34-.11-.48.1-.56.7-.68.84-.25.16-.46.05A5.75,5.75,0,0,1,7.73,9.58,6.29,6.29,0,0,1,6.54,8.1a.31.31,0,0,1,.1-.43c.11-.11.21-.25.32-.38a1.41,1.41,0,0,0,.21-.35.39.39,0,0,0,0-.38C7.1,6.46,6.67,5.4,6.49,5S6.14,4.62,6,4.61H5.6A.74.74,0,0,0,5,4.87a2.39,2.39,0,0,0-.75,1.78,4.19,4.19,0,0,0,.87,2.22A9.58,9.58,0,0,0,8.81,12.1a12.5,12.5,0,0,0,1.21.45,3.09,3.09,0,0,0,1.35.09,2.25,2.25,0,0,0,1.44-1,1.78,1.78,0,0,0,.13-1c-.06-.09-.2-.14-.41-.25Z"/>
      </g>
    </g>
  </g>
</svg>
