<svg xmlns="http://www.w3.org/2000/svg" viewBox="0 0 56 52">
  <defs>
    <style>
      .cls-1 {
        fill: red;
      }

      .cls-2 {
        fill: #fff;
      }
    </style>
  </defs>
  <g id="Capa_2" data-name="Capa 2">
    <g id="Capa_1-2" data-name="Capa 1">
      <g>
        <rect id="Rectángulo_27-3" data-name="Rectángulo 27-3" class="cls-1" width="56" height="52" rx="8"/>
        <path id="youtube" class="cls-2" d="M28.11,14.28h.19c1.71,0,10.39.07,12.74.7a4.18,4.18,0,0,1,3,3,18.1,18.1,0,0,1,.46,2.92v.22l0,.54v.21c.13,1.91.15,3.69.15,4.09v.15c0,.4,0,2.32-.17,4.3v.44A20.47,20.47,0,0,1,44,34.06a4.18,4.18,0,0,1-3,3c-2.42.65-11.61.7-12.89.7h-.3c-.65,0-3.31,0-6.11-.11H20.49A35,35,0,0,1,15,37a4.2,4.2,0,0,1-2.95-3,21.08,21.08,0,0,1-.49-3.25v-.37c-.1-1.41-.16-2.83-.17-4.25v-.25c0-.45,0-2,.13-3.71V20.88A18.39,18.39,0,0,1,12,17.94a4.18,4.18,0,0,1,3-3,34.3,34.3,0,0,1,5.53-.54h1.25q3-.09,6-.11h.33ZM24.66,21V31l8.67-5Z"/>
      </g>
    </g>
  </g>
</svg>
